<?xml version="1.0" encoding="utf-8"?>
<!-- Generator: Adobe Illustrator 21.1.0, SVG Export Plug-In . SVG Version: 6.00 Build 0)  -->
<svg version="1.1" id="圖層_1" xmlns="http://www.w3.org/2000/svg" xmlns:xlink="http://www.w3.org/1999/xlink" x="0px" y="0px"
	 viewBox="0 0 12.5 12.5" style="enable-background:new 0 0 12.5 12.5;" xml:space="preserve">
<style type="text/css">
	.st0{fill:#FFFFFF;}
	.st1{fill:#808080;}
	.st2{fill:#D73246;}
</style>
<g>
	<g>
		<path class="st0" d="M12.2,11.4c0,0.5-0.4,0.9-0.9,0.9H1.1c-0.5,0-0.9-0.4-0.9-0.9V1.1c0-0.5,0.4-0.9,0.9-0.9h10.3
			c0.5,0,0.9,0.4,0.9,0.9V11.4z"/>
		<path class="st1" d="M11.4,12.5H1.1C0.5,12.5,0,12,0,11.4V1.1C0,0.5,0.5,0,1.1,0h10.3c0.6,0,1.1,0.5,1.1,1.1v10.3
			C12.5,12,12,12.5,11.4,12.5z M1.1,0.5c-0.3,0-0.6,0.3-0.6,0.6v10.3c0,0.3,0.3,0.6,0.6,0.6h10.3c0.3,0,0.6-0.3,0.6-0.6V1.1
			c0-0.3-0.3-0.6-0.6-0.6H1.1z"/>
	</g>
	<g>
		<polygon class="st2" points="9.9,4.5 8.8,3.4 5.4,6.9 3.7,5.2 2.6,6.3 5.4,9.1 5.4,9 5.4,9 		"/>
	</g>
</g>
</svg>
