<?xml version="1.0" encoding="utf-8"?>
<!-- Generator: Adobe Illustrator 21.1.0, SVG Export Plug-In . SVG Version: 6.00 Build 0)  -->
<svg version="1.1" id="圖層_1" xmlns="http://www.w3.org/2000/svg" xmlns:xlink="http://www.w3.org/1999/xlink" x="0px" y="0px"
	 viewBox="0 0 11.2 14.1" style="enable-background:new 0 0 11.2 14.1;" xml:space="preserve">
<style type="text/css">
	.st0{fill:#808080;}
	.st1{fill:#EA2D48;}
</style>
<g id="大地圖">
</g>
<g id="地圖上icon">
</g>
<g id="列印button_x2F_注意事項">
</g>
<g id="側邊欄">
</g>
<g id="資訊">
	<g>
		<g>
			<path class="st0" d="M22.2,11.7h-0.5v-10c0-0.3-0.2-0.5-0.5-0.5H20V0.5C20,0.2,19.8,0,19.6,0h-5.1C14.2,0,14,0.2,14,0.5v0.8h-1.2
				c-0.3,0-0.5,0.2-0.5,0.5v10h-0.5c-0.2,0-0.4,0.2-0.4,0.4v1.5c0,0.2,0.2,0.4,0.4,0.4h10.3c0.2,0,0.4-0.2,0.4-0.4v-1.5
				C22.6,11.9,22.4,11.7,22.2,11.7z M16.4,11c0,0.1-0.1,0.1-0.1,0.1H14c-0.1,0-0.1-0.1-0.1-0.1V9.1C13.9,9,14,9,14,9h2.2
				c0.1-0.1,0.2,0,0.2,0.1V11z M16.4,7.9C16.4,8,16.3,8,16.2,8H14c-0.1,0-0.1,0-0.1-0.1v-2c0-0.1,0.1-0.1,0.1-0.1h2.2
				c0.1,0,0.2,0.1,0.2,0.1V7.9z M16.4,4.8c0,0.1-0.1,0.1-0.1,0.1H14c-0.1,0-0.1-0.1-0.1-0.1v-2c0-0.1,0.1-0.1,0.1-0.1h2.2
				c0.1,0,0.2,0,0.2,0.1V4.8z M20.1,11c0,0.1-0.1,0.1-0.1,0.1h-2.2c-0.1,0-0.1-0.1-0.1-0.1V9.1C17.7,9,17.8,9,17.8,9H20
				c0.1,0,0.1,0.1,0.1,0.1S20.1,11,20.1,11z M20.1,7.9C20.1,8,20.1,8,20.1,7.9L17.8,8c-0.1,0-0.2,0-0.2-0.1v-2
				c0-0.1,0.1-0.1,0.1-0.1h2.2C20,5.8,20,5.9,20,5.9L20.1,7.9L20.1,7.9z M20.1,4.8c0,0.1-0.1,0.1-0.1,0.1h-2.2
				c-0.1,0-0.1-0.1-0.1-0.1v-2c0-0.1,0.1-0.1,0.1-0.1H20c0.1,0,0.1,0.1,0.1,0.1S20.1,4.8,20.1,4.8z"/>
		</g>
	</g>
</g>
<g id="logo">
</g>
<g id="灰階透明">
</g>
<g id="列印popup視窗">
</g>
<g id="列印popup資訊">
</g>
<g id="標註範圍">
</g>
<g id="大範圍標註">
</g>
<g id="標注字型規格">
</g>
<g>
	<path class="st1" d="M10.8,11.7h-0.5v-10c0-0.3-0.2-0.5-0.5-0.5H8.6V0.5C8.6,0.2,8.4,0,8.2,0H3.1C2.8,0,2.6,0.2,2.6,0.5v0.8H1.4
		c-0.3,0-0.5,0.2-0.5,0.5v10H0.4c-0.2,0-0.4,0.2-0.4,0.4v1.5c0,0.2,0.2,0.4,0.4,0.4h10.4c0.2,0,0.4-0.2,0.4-0.4v-1.5
		C11.2,11.9,11,11.7,10.8,11.7z M5,11c0,0.1-0.1,0.1-0.1,0.1H2.6c-0.1,0-0.1-0.1-0.1-0.1V9.1c0-0.1,0.1-0.1,0.1-0.1h2.2
		C4.9,8.9,5,9,5,9.1V11z M5,7.9C5,8,4.9,8.1,4.9,8.1H2.6C2.5,8.1,2.5,8,2.5,7.9V6c0-0.1,0.1-0.1,0.1-0.1h2.2C4.9,5.8,5,5.9,5,6V7.9z
		 M5,4.8c0,0.1-0.1,0.1-0.1,0.1H2.6c-0.1,0-0.1-0.1-0.1-0.1V2.8c0-0.1,0.1-0.1,0.1-0.1h2.2C4.9,2.7,5,2.7,5,2.8V4.8z M8.8,11
		c0,0.1-0.1,0.1-0.1,0.1H6.4c-0.1,0-0.1-0.1-0.1-0.1V9.1c0-0.1,0.1-0.1,0.1-0.1h2.2c0.1,0,0.1,0.1,0.1,0.1V11z M8.8,7.9
		c0,0.1-0.1,0.1-0.1,0.1H6.4C6.3,8.1,6.3,8,6.3,7.9V6c0-0.1,0.1-0.1,0.1-0.1h2.2c0.1,0,0.1,0.1,0.1,0.1V7.9z M8.8,4.8
		c0,0.1-0.1,0.1-0.1,0.1H6.4c-0.1,0-0.1-0.1-0.1-0.1V2.8c0-0.1,0.1-0.1,0.1-0.1h2.2c0.1,0,0.1,0.1,0.1,0.1V4.8z"/>
</g>
<g>
	<path class="st1" d="M-1.3,11.7h-0.5v-10c0-0.3-0.2-0.5-0.5-0.5h-1.2V0.5C-3.5,0.2-3.7,0-3.9,0H-9c-0.3,0-0.5,0.2-0.5,0.5v0.8h-1.2
		c-0.3,0-0.5,0.2-0.5,0.5v10h-0.5c-0.2,0-0.4,0.2-0.4,0.4v1.5c0,0.2,0.2,0.4,0.4,0.4h10.4c0.2,0,0.4-0.2,0.4-0.4v-1.5
		C-0.9,11.9-1.1,11.7-1.3,11.7z M-7.1,11c0,0.1-0.1,0.1-0.1,0.1h-2.2c-0.1,0-0.1-0.1-0.1-0.1V9.1c0-0.1,0.1-0.1,0.1-0.1h2.2
		c0.1,0,0.1,0.1,0.1,0.1V11z M-7.1,7.9c0,0.1-0.1,0.1-0.1,0.1h-2.2c-0.1,0-0.1-0.1-0.1-0.1V6c0-0.1,0.1-0.1,0.1-0.1h2.2
		c0.1,0,0.1,0.1,0.1,0.1V7.9z M-7.1,4.8c0,0.1-0.1,0.1-0.1,0.1h-2.2c-0.1,0-0.1-0.1-0.1-0.1V2.8c0-0.1,0.1-0.1,0.1-0.1h2.2
		c0.1,0,0.1,0.1,0.1,0.1V4.8z M-3.3,11c0,0.1-0.1,0.1-0.1,0.1h-2.2c-0.1,0-0.1-0.1-0.1-0.1V9.1c0-0.1,0.1-0.1,0.1-0.1h2.2
		c0.1,0,0.1,0.1,0.1,0.1V11z M-3.3,7.9c0,0.1-0.1,0.1-0.1,0.1h-2.2c-0.1,0-0.1-0.1-0.1-0.1V6c0-0.1,0.1-0.1,0.1-0.1h2.2
		c0.1,0,0.1,0.1,0.1,0.1V7.9z M-3.3,4.8c0,0.1-0.1,0.1-0.1,0.1h-2.2c-0.1,0-0.1-0.1-0.1-0.1V2.8c0-0.1,0.1-0.1,0.1-0.1h2.2
		c0.1,0,0.1,0.1,0.1,0.1V4.8z"/>
</g>
</svg>
