<?xml version="1.0" encoding="utf-8"?>
<!-- Generator: Adobe Illustrator 21.1.0, SVG Export Plug-In . SVG Version: 6.00 Build 0)  -->
<svg version="1.1" id="圖層_1" xmlns="http://www.w3.org/2000/svg" xmlns:xlink="http://www.w3.org/1999/xlink" x="0px" y="0px"
	 viewBox="0 0 14.6 14.6" style="enable-background:new 0 0 14.6 14.6;" xml:space="preserve">
<style type="text/css">
	.st0{fill:#808080;}
</style>
<g id="大地圖">
</g>
<g id="地圖上icon">
</g>
<g id="列印button_x2F_注意事項">
</g>
<g id="側邊欄">
</g>
<g id="資訊">
	<g>
		<g>
			<path class="st0" d="M14.2,5.6h-5V0.4C9.2,0.2,9,0,8.7,0H5.9C5.7,0,5.5,0.2,5.5,0.4v5.1H0.4C0.2,5.6,0,5.8,0,6v2.8
				C0,9,0.2,9.2,0.4,9.2h5.1v5c0,0.2,0.2,0.4,0.4,0.4h2.8c0.2,0,0.4-0.2,0.4-0.4v-5h5.1c0.2,0,0.4-0.2,0.4-0.4V6
				C14.6,5.7,14.5,5.6,14.2,5.6z"/>
		</g>
	</g>
</g>
<g id="logo">
</g>
<g id="灰階透明">
</g>
<g id="列印popup視窗">
</g>
<g id="列印popup資訊">
</g>
<g id="標註範圍">
</g>
<g id="大範圍標註">
</g>
<g id="標注字型規格">
</g>
</svg>
