<?xml version="1.0" encoding="utf-8"?>
<!-- Generator: Adobe Illustrator 21.1.0, SVG Export Plug-In . SVG Version: 6.00 Build 0)  -->
<svg version="1.1" id="圖層_1" xmlns="http://www.w3.org/2000/svg" xmlns:xlink="http://www.w3.org/1999/xlink" x="0px" y="0px"
	 viewBox="0 0 17.2 12.3" style="enable-background:new 0 0 17.2 12.3;" xml:space="preserve">
<style type="text/css">
	.st0{fill:#808080;}
	.st1{fill:#FFFFFF;}
	.st2{fill:none;stroke:#EA2D48;stroke-width:1.9648;stroke-linecap:round;stroke-linejoin:round;stroke-miterlimit:10;}
</style>
<g id="大地圖">
</g>
<g id="地圖上icon">
</g>
<g id="列印button_x2F_注意事項">
</g>
<g id="側邊欄">
</g>
<g id="資訊">
	<g>
		<path class="st0" d="M17.2,9.7C17.1,9.2,17.1,8.6,17,8c0-0.3-0.1-0.6-0.1-0.9c0-0.1,0-0.1,0-0.2s-0.1-0.2-0.2-0.3h-0.1l0,0V4.3
			c0-0.1,0-0.2,0-0.2c0-0.2-0.1-0.4-0.3-0.5l0,0L8.6,0.1c0,0-0.2-0.1-0.2-0.1C8.2,0,8.1,0.1,8.1,0.1L0.4,3.5
			C0.3,3.6,0.2,3.6,0.1,3.8S0,4.3,0.1,4.5c0.1,0.1,0.1,0.2,0.2,0.2c0.5,0.2,0.9,0.4,1.4,0.6C2,5.5,2.8,5.8,3,5.9L3.1,6v1.4V11
			c0,0.2,0.1,0.4,0.2,0.5c0.1,0.1,0.1,0.1,0.2,0.1C4.6,12,5.8,12.2,7,12.3c1.2,0.1,2.3,0,3.5-0.1c0.6-0.1,0.4,0,1-0.1
			c0.3-0.1,0.6-0.2,0.9-0.3c0.1,0,0.3-0.1,0.4-0.2c0.1,0,0.2-0.1,0.3-0.2c0.1-0.2,0.1-0.4,0.1-0.6V6l2.2-0.9c0.1,0,0.1-0.1,0.2-0.1
			v1.4c0,0.1,0,0.1,0,0.2l0,0c-0.2,0-0.3,0.2-0.3,0.4c0,0.1,0,0.1,0,0.2c0,0.3-0.1,0.7-0.1,1c0,0.4-0.1,0.7-0.1,1.1
			c0,0.1,0,0.2,0,0.4c0,0.1,0,0.2,0,0.3c0.1,0.2,0.2,0.3,0.3,0.3h1.4C17,10.2,17.2,10,17.2,9.7L17.2,9.7z"/>
	</g>
</g>
<g id="logo">
</g>
<g id="灰階透明">
</g>
<g id="列印popup視窗">
</g>
<g id="列印popup資訊">
</g>
<g id="標註範圍">
</g>
<g id="大範圍標註">
</g>
<g id="標注字型規格">
</g>
<g>
	<g>
		<g>
			<path class="st0" d="M40.5,8.8c-0.1-0.6-0.1-1.1-0.2-1.7c0-0.3-0.1-0.6-0.1-0.9c0-0.1,0-0.1,0-0.2c0-0.1-0.1-0.2-0.2-0.3
				c0,0-0.1,0-0.1,0c0,0,0,0,0,0V3.4c0-0.1,0-0.2,0-0.2c0-0.2-0.1-0.4-0.3-0.5c0,0,0,0,0,0l-7.7-3.5c0,0-0.1,0-0.1-0.1
				c-0.1-0.1-0.2,0-0.4,0l-7.7,3.5c-0.1,0.1-0.2,0.1-0.3,0.2c-0.1,0.2-0.1,0.6,0,0.8c0.1,0.1,0.1,0.2,0.2,0.2
				c0.5,0.2,0.9,0.4,1.4,0.6c0.2,0.1,1.1,0.4,1.3,0.5c0,0,0.1,0.1,0.1,0.1l0,1.4v3.6c0,0.2,0.1,0.4,0.2,0.5c0.1,0.1,0.3,0.1,0.4,0.2
				c0.1,0.1-0.1,0,0,0c1.1,0.4,2.1,0.5,3.3,0.6c1.2,0.1,2.3,0,3.5-0.1c0.6-0.1,0.4,0,1-0.1c0.3-0.1,0.6-0.2,0.9-0.3
				c0.1,0,0.3-0.1,0.4-0.2c0.1,0,0.2-0.1,0.3-0.2c0.1-0.2,0.1-0.4,0.1-0.6V5.1l2.2-0.9c0.1,0,0.1-0.1,0.2-0.1v1.4c0,0.1,0,0.1,0,0.2
				c0,0,0,0,0,0c-0.2,0-0.3,0.2-0.3,0.4c0,0.1,0,0.1,0,0.2c0,0.3-0.1,0.7-0.1,1c0,0.4-0.1,0.7-0.1,1.1c0,0.1,0,0.2,0,0.4
				c0,0.1,0,0.2,0,0.3c0.1,0.2,0.2,0.3,0.3,0.3h1.4C40.4,9.3,40.5,9.1,40.5,8.8L40.5,8.8z M40.5,8.8"/>
		</g>
	</g>
</g>
<g>
	<g>
		<g>
			<path class="st0" d="M52.5-32.3h1.1c0.1,0,0.2-0.1,0.3-0.2c0.1-0.1,0-0.2,0-0.3l-2.1-2.8h0.5c0.1,0,0.2-0.1,0.3-0.2
				c0.1-0.1,0-0.2,0-0.3l-2.9-4.2c-0.1-0.1-0.2-0.1-0.3-0.1h0c-0.1,0-0.2,0.1-0.3,0.1l-2.9,4.2c-0.1,0.1-0.1,0.2,0,0.3
				c0.1,0.1,0.2,0.2,0.3,0.2h0.5l-2.1,2.8c-0.1,0.1-0.1,0.2,0,0.3c0.1,0.1,0.2,0.2,0.3,0.2h1.1l-2.8,3.6c-0.1,0.1-0.1,0.2,0,0.3
				c0.1,0.1,0.2,0.2,0.3,0.2h4.2v3.4h0c0,0.4,0.7,0.6,1.5,0.6c0.8,0,1.5-0.3,1.5-0.6l0-3.4h4.2c0.1,0,0.2-0.1,0.3-0.2
				c0.1-0.1,0-0.2,0-0.3L52.5-32.3z M52.5-32.3"/>
		</g>
	</g>
</g>
<g id="資訊_1_">
	<g>
		<g>
			<circle class="st1" cx="10" cy="-13.2" r="11.5"/>
		</g>
		<g>
			<polyline class="st2" points="15.6,-10.9 10,-17.5 4.4,-10.9 			"/>
		</g>
	</g>
</g>
</svg>
