<?xml version="1.0" encoding="utf-8"?>
<!-- Generator: Adobe Illustrator 21.1.0, SVG Export Plug-In . SVG Version: 6.00 Build 0)  -->
<svg version="1.1" xmlns="http://www.w3.org/2000/svg" xmlns:xlink="http://www.w3.org/1999/xlink" x="0px" y="0px"
	 viewBox="0 0 28.1 31.1" style="enable-background:new 0 0 28.1 31.1;" xml:space="preserve">
<style type="text/css">
	.st0{fill:#EA2D48;}
	.st1{fill:none;stroke:#FFFFFF;stroke-width:0.895;stroke-linecap:round;stroke-linejoin:round;stroke-miterlimit:10;}
	.st2{fill:#FFFFFF;}
	.st3{fill:none;stroke:#FFFFFF;stroke-width:1.9648;stroke-linecap:round;stroke-linejoin:round;stroke-miterlimit:10;}
	.st4{fill:none;stroke:#EA2D48;stroke-width:1.9648;stroke-linecap:round;stroke-linejoin:round;stroke-miterlimit:10;}
	.st5{fill:#808080;}
</style>
<g id="大地圖">
</g>
<g id="地圖上icon">
</g>
<g id="列印button_x2F_注意事項">
</g>
<g id="側邊欄">
</g>
<g id="資訊">
</g>
<g id="logo">
	<g>
		<g>
			<path class="st2" d="M11,21.6c-0.1,0-0.1,0-0.2,0c-0.6-0.3-1.2-0.7-1.7-1.2c-0.5-0.5-0.9-1.1-1.2-1.7c-0.1-0.2,0-0.4,0.2-0.5
				c0.2-0.1,0.4,0,0.5,0.2c0.3,0.5,0.6,1,1.1,1.5c0.4,0.4,0.9,0.8,1.5,1.1c0.2,0.1,0.3,0.3,0.2,0.5C11.3,21.6,11.2,21.6,11,21.6z"/>
		</g>
		<g>
			<path class="st2" d="M14,27.8c-6.8,0-12.3-5.5-12.3-12.3S7.3,3.3,14,3.3c1.8,0,3.6,0.4,5.2,1.2c0.4,0.2,0.6,0.7,0.4,1.1
				c-0.2,0.4-0.7,0.6-1.1,0.4c-1.4-0.7-3-1-4.5-1C8.2,4.9,3.4,9.7,3.4,15.5S8.2,26.2,14,26.2s10.7-4.8,10.7-10.7
				c0-1.5-0.3-3-0.9-4.4c-0.2-0.4,0-0.9,0.4-1.1c0.4-0.2,0.9,0,1.1,0.4c0.7,1.6,1.1,3.3,1.1,5C26.3,22.3,20.8,27.8,14,27.8z"/>
		</g>
		<g>
			<path class="st2" d="M14,27.8c-6.8,0-12.3-5.5-12.3-12.3S7.3,3.3,14,3.3c1.8,0,3.6,0.4,5.2,1.2c0.4,0.2,0.6,0.7,0.4,1.1
				c-0.2,0.4-0.7,0.6-1.1,0.4c-1.4-0.7-3-1-4.5-1C8.2,4.9,3.4,9.7,3.4,15.5S8.2,26.2,14,26.2s10.7-4.8,10.7-10.7
				c0-1.5-0.3-3-0.9-4.4c-0.2-0.4,0-0.9,0.4-1.1c0.4-0.2,0.9,0,1.1,0.4c0.7,1.6,1.1,3.3,1.1,5C26.3,22.3,20.8,27.8,14,27.8z"/>
		</g>
		<g>
			<path class="st2" d="M14,22.4c-0.2,0-0.4-0.2-0.4-0.4s0.2-0.4,0.4-0.4c3.3,0,6.1-2.7,6.1-6.1S17.4,9.5,14,9.5S8,12.2,8,15.5
				c0,0.2-0.2,0.4-0.4,0.4s-0.4-0.2-0.4-0.4c0-3.8,3.1-6.9,6.9-6.9s6.9,3.1,6.9,6.9S17.8,22.4,14,22.4z"/>
		</g>
		<g>
			<path class="st2" d="M27.6,16H0.5C0.2,16,0,15.8,0,15.5S0.2,15,0.5,15h27.1c0.3,0,0.5,0.2,0.5,0.5S27.9,16,27.6,16z"/>
		</g>
		<g>
			<path class="st2" d="M14,31.1c-0.3,0-0.5-0.2-0.5-0.5V0.5C13.5,0.2,13.8,0,14,0s0.5,0.2,0.5,0.5v30.1
				C14.5,30.8,14.3,31.1,14,31.1z"/>
		</g>
	</g>
</g>
<g id="灰階透明">
</g>
<g id="列印popup視窗">
</g>
<g id="列印popup資訊">
</g>
<g id="標註範圍">
</g>
<g id="大範圍標註">
</g>
<g id="標注字型規格">
</g>
</svg>
