<?xml version="1.0" encoding="utf-8"?>
<!-- Generator: Adobe Illustrator 21.1.0, SVG Export Plug-In . SVG Version: 6.00 Build 0)  -->
<svg version="1.1" xmlns="http://www.w3.org/2000/svg" xmlns:xlink="http://www.w3.org/1999/xlink" x="0px" y="0px"
	 viewBox="0 0 105 40.7" style="enable-background:new 0 0 105 40.7;" xml:space="preserve">
<style type="text/css">
	.st0{fill:#EA2D48;}
	.st1{fill:none;stroke:#FFFFFF;stroke-width:0.895;stroke-linecap:round;stroke-linejoin:round;stroke-miterlimit:10;}
	.st2{fill:#FFFFFF;}
	.st3{fill:none;stroke:#FFFFFF;stroke-width:1.9648;stroke-linecap:round;stroke-linejoin:round;stroke-miterlimit:10;}
	.st4{fill:none;stroke:#EA2D48;stroke-width:1.9648;stroke-linecap:round;stroke-linejoin:round;stroke-miterlimit:10;}
	.st5{fill:#808080;}
</style>
<g id="大地圖">
</g>
<g id="地圖上icon">
</g>
<g id="列印button_x2F_注意事項">
	<g>
		<path class="st0" d="M84.7,40.7H20.3C9.2,40.7,0,31.5,0,20.3v0C0,9.2,9.2,0,20.3,0l64.3,0C95.8,0,105,9.2,105,20.3v0
			C105,31.5,95.8,40.7,84.7,40.7z"/>
		<g>
			<line class="st1" x1="29" y1="24.8" x2="36.9" y2="24.8"/>
			<line class="st1" x1="29" y1="28.4" x2="36.9" y2="28.4"/>
			<g>
				<path class="st2" d="M25.5,10.2c0-0.6,0.5-1.1,1.1-1.1h12.9c0.6,0,1.1,0.5,1.1,1.1v4.1h0.5v-4.1c0-0.9-0.7-1.7-1.7-1.7H26.6
					c-0.9,0-1.7,0.7-1.7,1.7v4.1h0.5V10.2z"/>
				<path class="st2" d="M26,10.2c0-0.3,0.3-0.6,0.6-0.6h12.9c0.3,0,0.6,0.3,0.6,0.6v4.1h0.5v-4.1c0-0.6-0.5-1.1-1.1-1.1H26.6
					c-0.6,0-1.1,0.5-1.1,1.1v4.1H26V10.2z"/>
				<path class="st2" d="M23,26.9c-0.6,0-1.1-0.5-1.1-1.1v-9.9c0-0.6,0.5-1.1,1.1-1.1H25v-0.5H23c-0.9,0-1.7,0.7-1.7,1.7v9.9
					c0,0.9,0.7,1.7,1.7,1.7H25v-0.5H23z"/>
				<path class="st2" d="M43.1,14.3h-1.9v0.5h1.9c0.6,0,1.1,0.5,1.1,1.1v9.9c0,0.6-0.5,1.1-1.1,1.1h-1.9v0.5h1.9
					c0.9,0,1.7-0.7,1.7-1.7v-9.9C44.8,15,44,14.3,43.1,14.3z"/>
				<rect x="26" y="14.3" class="st2" width="14.1" height="0.5"/>
				<rect x="40.6" y="14.3" class="st2" width="0.5" height="0.5"/>
				<rect x="25" y="14.3" class="st2" width="0.5" height="0.5"/>
				<rect x="40.1" y="14.3" class="st2" width="0.5" height="0.5"/>
				<rect x="25.5" y="14.3" class="st2" width="0.5" height="0.5"/>
				<path class="st2" d="M43.1,15.3c0.3,0,0.6,0.3,0.6,0.6v9.9c0,0.3-0.3,0.6-0.6,0.6h-1.9v0.5h1.9c0.6,0,1.1-0.5,1.1-1.1v-9.9
					c0-0.6-0.5-1.1-1.1-1.1h-1.9v0.5H43.1z"/>
				<path class="st2" d="M23,26.4c-0.3,0-0.6-0.3-0.6-0.6v-9.9c0-0.3,0.3-0.6,0.6-0.6H25v-0.5H23c-0.6,0-1.1,0.5-1.1,1.1v9.9
					c0,0.6,0.5,1.1,1.1,1.1H25v-0.5H23z"/>
				<rect x="26" y="14.8" class="st2" width="14.1" height="0.5"/>
				<rect x="25" y="14.8" class="st2" width="0.5" height="0.5"/>
				<rect x="40.6" y="14.8" class="st2" width="0.5" height="0.5"/>
				<rect x="40.1" y="14.8" class="st2" width="0.5" height="0.5"/>
				<rect x="25.5" y="14.8" class="st2" width="0.5" height="0.5"/>
				<path class="st2" d="M40.6,30.5c0,0.6-0.5,1.1-1.1,1.1H26.6c-0.6,0-1.1-0.5-1.1-1.1v-3H25v3c0,0.9,0.7,1.7,1.7,1.7h12.9
					c0.9,0,1.7-0.7,1.7-1.7v-3h-0.5V30.5z"/>
				<path class="st2" d="M39.5,21.1H26.6c-0.9,0-1.7,0.7-1.7,1.7v3.7h0.5v-3.7c0-0.6,0.5-1.1,1.1-1.1h12.9c0.6,0,1.1,0.5,1.1,1.1
					v3.7h0.5v-3.7C41.2,21.8,40.4,21.1,39.5,21.1z"/>
				<rect x="40.6" y="26.9" class="st2" width="0.5" height="0.5"/>
				<rect x="25" y="26.9" class="st2" width="0.5" height="0.5"/>
				<rect x="40.6" y="26.4" class="st2" width="0.5" height="0.5"/>
				<rect x="25" y="26.4" class="st2" width="0.5" height="0.5"/>
				<path class="st2" d="M40.1,30.5c0,0.3-0.3,0.6-0.6,0.6H26.6c-0.3,0-0.6-0.3-0.6-0.6v-3h-0.5v3c0,0.6,0.5,1.1,1.1,1.1h12.9
					c0.6,0,1.1-0.5,1.1-1.1v-3h-0.5V30.5z"/>
				<path class="st2" d="M39.5,21.6H26.6c-0.6,0-1.1,0.5-1.1,1.1v3.7H26v-3.7c0-0.3,0.3-0.6,0.6-0.6h12.9c0.3,0,0.6,0.3,0.6,0.6v3.7
					h0.5v-3.7C40.6,22.1,40.1,21.6,39.5,21.6z"/>
				<rect x="25.5" y="26.9" class="st2" width="0.5" height="0.5"/>
				<rect x="40.1" y="26.9" class="st2" width="0.5" height="0.5"/>
				<rect x="25.5" y="26.4" class="st2" width="0.5" height="0.5"/>
				<rect x="40.1" y="26.4" class="st2" width="0.5" height="0.5"/>
			</g>
		</g>
		<g>
			<g>
				<path class="st2" d="M53.2,14h7.5V15h-4c-0.2,0.8-0.4,1.5-0.6,2.2h3.3l0.2,0l0.7,0.2c-0.7,5.1-3,8-6.2,9.5
					c-0.1-0.3-0.4-0.7-0.7-0.9c1.5-0.6,2.8-1.6,3.8-3.1c-0.7-0.7-1.7-1.5-2.7-2.2c-0.2,0.4-0.5,0.7-0.7,1c-0.1-0.2-0.5-0.7-0.7-0.9
					c1.2-1.4,2-3.5,2.5-5.8h-2.4V14z M55.7,18.3c-0.2,0.5-0.4,1-0.6,1.4c1,0.6,2.1,1.5,2.8,2.1c0.6-1,1-2.2,1.3-3.6H55.7z
					 M62.9,23.2h-1.1v-8.3h1.1V23.2z M66,13.2v12.1c0,0.7-0.2,1-0.6,1.2c-0.4,0.2-1.1,0.2-2.3,0.2c0-0.3-0.2-0.8-0.4-1.1
					c0.8,0,1.6,0,1.8,0c0.2,0,0.3-0.1,0.3-0.3V13.2H66z"/>
				<path class="st2" d="M70.6,23.5c1.3-0.4,2.8-0.8,4.2-1.3l0.1,1c-2.1,0.7-4.3,1.4-5.9,1.9L68.8,24c0.2-0.1,0.4-0.1,0.7-0.2v-8.9
					c1.6-0.4,3.3-0.9,4.3-1.4l0.9,0.9c-1.1,0.5-2.7,0.9-4.1,1.3v2.8h4.1v1.1h-4.1V23.5z M81.7,23.1c0,0.6-0.1,1-0.6,1.2
					c-0.5,0.2-1.3,0.2-2.3,0.2c-0.1-0.3-0.3-0.9-0.4-1.2c0.9,0,1.7,0,2,0c0.3,0,0.3-0.1,0.3-0.3v-7.7h-3.7v11.4h-1.1V14.2h5.9V23.1z
					"/>
			</g>
		</g>
	</g>
</g>
<g id="側邊欄">
</g>
<g id="資訊">
</g>
<g id="logo">
</g>
<g id="灰階透明">
</g>
<g id="列印popup視窗">
</g>
<g id="列印popup資訊">
</g>
<g id="標註範圍">
</g>
<g id="大範圍標註">
</g>
<g id="標注字型規格">
</g>
</svg>
