<?xml version="1.0" encoding="utf-8"?>
<!-- Generator: Adobe Illustrator 21.1.0, SVG Export Plug-In . SVG Version: 6.00 Build 0)  -->
<svg version="1.1" xmlns="http://www.w3.org/2000/svg" xmlns:xlink="http://www.w3.org/1999/xlink" x="0px" y="0px"
	 viewBox="0 0 30.4 45.9" style="enable-background:new 0 0 30.4 45.9;" xml:space="preserve">
<style type="text/css">
	.st0{fill:#EA2D48;}
	.st1{fill:#808080;}
	.st2{fill:#F2F2F2;}
	.st3{fill:none;stroke:#FFFFFF;stroke-width:2;stroke-miterlimit:10;}
	.st4{fill:none;stroke:#EA2D48;stroke-width:3;stroke-linecap:round;stroke-linejoin:round;stroke-miterlimit:10;}
	.st5{fill:none;stroke:#FFFFFF;stroke-width:2.496;stroke-linecap:round;stroke-linejoin:round;stroke-miterlimit:10;}
	.st6{fill:none;stroke:#FFFFFF;stroke-width:0.75;stroke-linecap:round;stroke-linejoin:round;stroke-miterlimit:10;}
	.st7{fill:#FFFFFF;}
	.st8{fill:none;stroke:#FFFFFF;stroke-width:2.5818;stroke-linecap:round;stroke-linejoin:round;stroke-miterlimit:10;}
	.st9{fill:none;stroke:#EA2D48;stroke-width:1.2732;stroke-linecap:round;stroke-miterlimit:10;}
	.st10{fill:none;stroke:#EA2D48;stroke-width:2.65;stroke-linecap:round;stroke-miterlimit:10;}
	.st11{fill:none;stroke:#EA2D48;stroke-width:1.6361;stroke-linecap:round;stroke-miterlimit:10;}
	.st12{fill:#232828;}
</style>
<g id="地圖">
</g>
<g id="圖層_3">
</g>
<g id="圖層_5">
</g>
<g id="紅黑">
</g>
<g id="圖層_7">
</g>
<g id="資訊">
	<g>
		<g>
			<g>
				<path class="st7" d="M15.2,45.9c-0.3,0-0.6-0.1-0.9-0.3L4,35.7c-0.5-0.5-0.5-1.3,0-1.8c0.5-0.5,1.3-0.5,1.8,0l9.4,9.1l9.5-9.1
					c0.5-0.5,1.3-0.5,1.8,0c0.5,0.5,0.5,1.3,0,1.8L16,45.6C15.8,45.8,15.5,45.9,15.2,45.9z"/>
			</g>
		</g>
		<g>
			<g>
				<path class="st7" d="M4.9,12.4c-0.3,0-0.7-0.1-0.9-0.4c-0.5-0.5-0.5-1.3,0-1.8l10.4-9.9c0.5-0.5,1.2-0.5,1.7,0l10.3,9.9
					c0.5,0.5,0.5,1.3,0,1.8c-0.5,0.5-1.3,0.5-1.8,0L15.3,3L5.7,12C5.5,12.3,5.2,12.4,4.9,12.4z"/>
			</g>
		</g>
		<g>
			<g>
				<path class="st7" d="M30.1,23.3H0.4c-0.2,0-0.4-0.2-0.4-0.4s0.2-0.4,0.4-0.4h29.7c0.2,0,0.4,0.2,0.4,0.4S30.3,23.3,30.1,23.3z"
					/>
			</g>
		</g>
	</g>
</g>
<g id="圖層_6">
</g>
<g id="標注範圍">
</g>
<g id="標注大範圍">
</g>
<g id="標注字型">
</g>
</svg>
