<?xml version="1.0" encoding="utf-8"?>
<!-- Generator: Adobe Illustrator 21.1.0, SVG Export Plug-In . SVG Version: 6.00 Build 0)  -->
<svg version="1.1" xmlns="http://www.w3.org/2000/svg" xmlns:xlink="http://www.w3.org/1999/xlink" x="0px" y="0px"
	 viewBox="0 0 12.1 16.3" style="enable-background:new 0 0 12.1 16.3;" xml:space="preserve">
<style type="text/css">
	.st0{fill:#EA2D48;}
	.st1{fill:none;stroke:#FFFFFF;stroke-width:0.895;stroke-linecap:round;stroke-linejoin:round;stroke-miterlimit:10;}
	.st2{fill:#FFFFFF;}
	.st3{fill:none;stroke:#FFFFFF;stroke-width:1.9648;stroke-linecap:round;stroke-linejoin:round;stroke-miterlimit:10;}
	.st4{fill:none;stroke:#EA2D48;stroke-width:1.9648;stroke-linecap:round;stroke-linejoin:round;stroke-miterlimit:10;}
	.st5{fill:#808080;}
</style>
<g id="大地圖">
</g>
<g id="地圖上icon">
</g>
<g id="列印button_x2F_注意事項">
</g>
<g id="側邊欄">
</g>
<g id="資訊">
	<g>
		<path class="st0" d="M9.2,8.2h1.1c0.1,0,0.2-0.1,0.3-0.2c0.1-0.1,0-0.2,0-0.3L8.5,4.9h0.5c0.1,0,0.2-0.1,0.3-0.2
			c0.1-0.1,0-0.2,0-0.3L6.3,0.1C6.3,0.1,6.2,0,6,0h0C5.9,0,5.8,0.1,5.8,0.1L2.9,4.4c-0.1,0.1-0.1,0.2,0,0.3C2.9,4.8,3,4.9,3.1,4.9
			h0.5L1.5,7.7C1.5,7.8,1.4,7.9,1.5,8c0.1,0.1,0.2,0.2,0.3,0.2h1.1l-2.8,3.6C0,11.9,0,12,0,12.1c0.1,0.1,0.2,0.2,0.3,0.2h4.2v3.4h0
			c0,0.4,0.7,0.6,1.5,0.6c0.8,0,1.5-0.3,1.5-0.6l0-3.4h4.2c0.1,0,0.2-0.1,0.3-0.2c0.1-0.1,0-0.2,0-0.3L9.2,8.2z M9.2,8.2"/>
	</g>
</g>
<g id="logo">
</g>
<g id="灰階透明">
</g>
<g id="列印popup視窗">
</g>
<g id="列印popup資訊">
</g>
<g id="標註範圍">
</g>
<g id="大範圍標註">
</g>
<g id="標注字型規格">
</g>
</svg>
